{"title":"Back to the Future(1989)MPEG-4[DaScubaDude]","uid":14643731,"size":1076849841,"categoryP":"video","categoryS":"movies","magnet":"?xt=urn:btih:8ab12437b4bf9ec29b46bb862ee54ccd0cc0dc36&amp;dn=Back+to+the+Future%281989%29MPEG-4%5BDaScubaDude%5D&amp;tr=udp%3A%2F%2Ftracker.leechers-paradise.org%3A6969&amp;tr=udp%3A%2F%2Fzer0day.ch%3A1337&amp;tr=udp%3A%2F%2Fopen.demonii.com%3A1337&amp;tr=udp%3A%2F%2Ftracker.coppersurfer.tk%3A6969&amp;tr=udp%3A%2F%2Fexodus.desync.com%3A6969","seeders":0,"leechers":0,"uploader":"dascuba","files":1,"time":1463561985,"description":"Back to the Future Part II (1989)\r\nPG | 1h 48min | Adventure, Comedy, Sci-Fi | 22 November 1989 (USA)\r\nAfter visiting 2015, Marty McFly must repeat his visit to 1955 to prevent disastrous changes to 1985... without interfering with his first trip.\r\nDirector: Robert Zemeckis\r\nWriters: Robert Zemeckis (characters), Bob Gale (characters) | \r\nStars: Michael J. Fox, Christopher Lloyd, Lea Thompson |\r\n\r\nGeneral\r\nComplete name                            : BacktotheFutureIIBACK_TO_THE_FUTURE_II_Title1.mp4\r\nFormat                                   : MPEG-4\r\nFormat profile                           : Base Media\r\nCodec ID                                 : isom (isom/iso2/avc1/mp41)\r\nFile size                                : 1.00 GiB\r\nDuration                                 : 1h 48mn\r\nOverall bit rate mode                    : Variable\r\nOverall bit rate                         : 1 329 Kbps\r\nMovie name                               : BACK_TO_THE_FUTURE_II\r\nGenre                                    : Science_Fiction\r\nWriting application                      : Lavf54.6.100\r\n\r\nVideo\r\nID                                       : 1\r\nFormat                                   : AVC\r\nFormat/Info                              : Advanced Video Codec\r\nFormat profile                           :   \r\nFormat settings, CABAC                   : No\r\nFormat settings, ReFrames                : 6 frames\r\nCodec ID                                 : avc1\r\nCodec ID/Info                            : Advanced Video Coding\r\nDuration                                 : 1h 48mn\r\nBit rate                                 : 1 194 Kbps\r\nWidth                                    : 720 pixels\r\nHeight                                   : 404 pixels\r\nDisplay aspect ratio                     : 16:9\r\nFrame rate mode                          : Constant\r\nFrame rate                               : 29.970 (30000/1001) fps\r\nColor space                              : YUV\r\nChroma subsampling                       : 4:2:0\r\nBit depth                                : 8 bits\r\nScan type                                : Progressive\r\nBits/(Pixel*Frame)                       : 0.137\r\nStream size                              : 923 MiB (90%)\r\n\r\nAudio\r\nID                                       : 2\r\nFormat                                   : AAC\r\nFormat/Info                              : Advanced Audio Codec\r\nFormat profile                           : LC\r\nCodec ID                                 : 40\r\nDuration                                 : 1h 48mn\r\nBit rate mode                            : Variable\r\nBit rate                                 : 128 Kbps\r\nMaximum bit rate                         : 148 Kbps\r\nChannel(s)                               : 2 channels\r\nChannel positions                        : Front: L R\r\nSampling rate                            : 44.1 KHz\r\nFrame rate                               : 43.066 fps (1024 spf)\r\nCompression mode                         : Lossy\r\nStream size                              : 98.9 MiB (10%)\r\nDefault                                  : Yes\r\nAlternate group                          : 1","torrent":{"xt":"urn:btih:8ab12437b4bf9ec29b46bb862ee54ccd0cc0dc36","amp;dn":"Back+to+the+Future%281989%29MPEG-4%5BDaScubaDude%5D","amp;tr":["udp%3A%2F%2Ftracker.leechers-paradise.org%3A6969","udp%3A%2F%2Fzer0day.ch%3A1337","udp%3A%2F%2Fopen.demonii.com%3A1337","udp%3A%2F%2Ftracker.coppersurfer.tk%3A6969","udp%3A%2F%2Fexodus.desync.com%3A6969"],"infoHash":"8ab12437b4bf9ec29b46bb862ee54ccd0cc0dc36","infoHashBuffer":{"type":"Buffer","data":[138,177,36,55,180,191,158,194,155,70,187,134,46,229,76,205,12,192,220,54]},"announce":[],"urlList":[]}}